<svg width="512" height="512" viewBox="0 0 512 512" fill="none" xmlns="http://www.w3.org/2000/svg">
<path d="M297.099 4.09534C291.785 3.78841 284.794 3.97796 279.38 3.97911L247.67 3.99139L226.803 3.96881C222.98 3.96069 218.92 3.72674 215.138 4.14616C204.17 5.36251 204.115 14.1823 203.29 22.3959L201.853 36.8344L196.74 87.9894C193.11 90.3004 183.313 94.7749 179.13 96.8864C160.333 106.323 141.293 115.539 126.073 130.373C98.8351 156.918 99.9826 192.85 99.9826 227.973L99.9851 276.572L99.9751 449.852C99.9701 454.297 100.04 458.825 99.9876 463.272C99.7526 483.527 113.508 501.515 133.068 506.702C139.173 508.322 145.82 508.067 152.143 508.07L167.463 508.072L214.625 508.067H322.698L354.244 508.08C360.147 508.08 368.967 508.33 374.582 507.51C381.469 506.467 388.006 503.792 393.65 499.712C403.138 492.952 409.527 482.68 411.392 471.18C412.176 466.257 412.005 460.677 412.002 455.637L411.984 436.06L411.99 366.602L411.997 251.75L411.994 218.742C411.992 206.91 412.048 195.196 410.481 183.441C408.405 167.875 403.654 153.022 394.405 140.18C378.559 118.176 351.768 106.248 328.194 94.5446C326.039 93.4749 316.826 89.3436 315.712 88.0556C314.072 86.1576 309.649 22.8051 307.622 13.6072C307.22 11.7826 306.657 10.1396 305.517 8.62519C303.357 5.75574 300.53 4.62556 297.099 4.09534ZM212.875 483.99L165.11 483.98C160.483 483.982 155.745 483.965 151.123 484.007C142.695 484.087 136.283 484.322 129.908 478.012C126.778 474.94 124.788 470.89 124.265 466.535C123.878 463.342 123.983 458.925 123.983 455.602L123.985 439.815L123.99 386.202L123.993 210.376C124.048 187.98 125.825 163.944 142.868 147.436C157.575 133.19 178.483 124.281 196.593 115.053C200.368 113.129 206.948 109.484 210.733 108.485C212.925 107.906 219.625 108.051 222.205 108.057L237.805 108.088L294.141 108.073L299.059 108.11C303.598 108.392 313.802 114.228 318.454 116.565C349.043 131.934 381.635 144.848 386.335 183.571C388.575 202.032 387.991 218.938 387.992 237.517L387.986 317.757L387.979 416.7L387.992 448.107C388.001 453.77 388.073 459.507 387.909 465.107C387.641 474.292 379.922 482.84 370.725 483.71C365.189 484.232 358.89 484.005 353.263 484L321.879 483.99H212.875ZM290.867 83.9174C269.797 84.2356 248.233 83.9986 227.125 83.9929L221.373 84.0186C222.515 71.4159 223.748 58.8216 225.07 46.2361C225.543 41.5221 226.705 32.5844 226.758 28.2089C240.413 27.7249 254.653 28.3156 268.352 28.0946C272.396 28.0294 281.627 28.4226 285.039 27.9984C285.707 31.1911 286.255 39.0791 286.61 42.7081L289.464 71.3726C289.752 74.2654 290.28 81.2681 290.867 83.9174Z" fill="currentColor"/>
<path d="M182.24 228.116C180.768 228.066 179.293 228.036 177.818 228.026C166.883 228.059 163.723 234.207 163.99 244.08C164.768 272.525 171.718 301.413 193.168 321.538C208.055 335.505 226.998 342.825 246.985 345.848C250.888 346.448 256.08 347.195 259.953 347.09C260.088 352.393 259.5 367.113 260.57 371.258C261.035 373.078 261.958 374.75 263.251 376.113C265.41 378.433 268.487 379.955 271.675 380.008C274.927 380.06 278.068 378.82 280.408 376.56C281.986 375.025 283.085 373.063 283.572 370.915C284.347 367.64 283.985 351.55 283.963 347.188C293.828 346.235 304.45 343.485 313.252 338.993C319.177 336.89 328.758 328.17 332.76 323.248C344.386 308.755 348.394 288.99 347.831 270.775C347.455 265.303 342.812 260.425 337.36 260.168C315.023 259.118 288.996 266.71 275.306 285.148C273.777 282.295 272.454 279.03 270.964 276.083C253.425 241.385 218.835 229.651 182.24 228.116ZM256.938 323.233C236.893 321.138 217.935 315.318 204.66 299.078C195.505 287.875 191.305 274.22 189.335 260.103C189.133 258.645 188.343 253.94 188.79 252.828C189.443 252.608 189.855 252.745 190.535 252.855C228.018 255.088 253.623 276.315 258.388 313.905C258.748 316.755 259.44 320.155 259.41 322.993C258.853 323.608 257.738 323.328 256.938 323.233ZM284.834 323.158C287.022 310.63 290.198 300.633 301.119 292.738C308.051 287.725 314.932 286.338 323.114 284.873C320.047 308.518 307.846 319.51 284.834 323.158Z" fill="currentColor"/>
</svg>
