<svg width="512" height="512" viewBox="0 0 512 512" fill="none" xmlns="http://www.w3.org/2000/svg">
<path d="M264.764 4.17807C125.72 -0.645208 9.08011 108.138 4.21262 247.18C-0.654877 386.223 108.09 502.898 247.13 507.81C386.234 512.725 502.974 403.92 507.844 264.815C512.715 125.708 403.871 9.00357 264.764 4.17807ZM408.221 86.6963C397.838 97.6 386.754 107.976 376.258 118.782C373.545 121.575 371.953 124.291 372.088 128.347C372.187 131.577 373.576 134.633 375.946 136.831C378.29 138.995 381.404 140.13 384.591 139.982C390.786 139.703 395.523 133.537 399.655 129.392L416.157 112.846C418.606 110.393 422.81 105.94 425.403 103.847C427.896 106.99 430.629 109.918 433.17 113.068C438.682 119.861 443.798 126.967 448.492 134.35C476.365 178.071 488.385 230.036 482.541 281.555C475.729 341.513 445.429 396.323 398.28 433.983C365.308 460.445 325.595 477.163 283.624 482.248C274.652 483.345 263.219 484.145 254.155 483.938C247.73 483.748 241.203 483.565 234.805 482.943C196.283 479.34 159.34 465.87 127.538 443.833C122.153 440.123 116.923 436.185 111.865 432.038C109.27 429.915 106.453 427.323 103.883 425.328C114.563 413.438 128.213 402.153 138.508 389.803C139.555 388.545 140.023 385.32 139.95 383.655C139.828 380.383 138.418 377.29 136.028 375.05C133.518 372.745 130.583 372 127.243 372.118C121.4 372.323 116.868 378.138 112.99 382.023L95.8926 399.15C93.6976 401.348 88.8701 406.415 86.5401 408.168L86.3501 407.883C84.3901 405.033 80.1676 400.448 77.7501 397.418C72.1901 390.478 67.0376 383.218 62.3251 375.675C32.6376 328.088 21.6926 271.168 31.6126 215.963C42.3551 156.12 76.5301 103.037 126.558 68.489C160.6 44.8278 200.515 31.0218 241.9 28.5915C246.903 28.3035 252.65 28.0065 257.66 28.1195C302.986 28.4683 347.168 42.381 384.515 68.0648C393.609 74.3238 399.936 79.7283 408.221 86.6963Z" fill="currentColor"/>
<path d="M208.83 147.263C207.435 144.73 205.055 142.543 203.76 139.519C201.008 133.08 201.673 125.917 205.75 120.195C207.535 117.69 209.715 115.645 210.738 112.804C211.828 109.822 211.633 106.521 210.2 103.688C208.73 100.813 206.338 98.5142 203.205 97.5644C199.95 96.5579 196.425 96.9439 193.468 98.6307C187.12 102.309 181.145 113.463 179.503 120.507C176.098 135.114 178.915 143.343 186.123 155.577C171.325 163.687 163.665 171.323 155.518 186.08C145.833 180.941 137.853 178.23 126.46 179.162C115.968 180.021 95.79 187.565 97.0925 200.947C97.89 209.156 108.363 214.778 115.338 209.444C117.023 208.154 119.383 206.233 121.195 205.131C123.275 203.853 125.595 203.012 128.013 202.662C136.54 201.433 140.903 204.153 147.263 208.905C144.023 231.514 148.44 247.583 160.683 266.565C156.663 270.402 152.328 275.1 148.275 278.59C142.86 283.255 134.05 291.265 126.458 287.87C123.63 286.66 120.833 284.59 118.61 282.435C113.51 277.492 106.373 275.952 100.758 281.27C95.1925 286.537 96.0075 294.187 101.348 299.292C109.188 306.782 119.068 312.957 130.253 312.85C149.095 312.847 164.328 296.932 176.733 284.49C178.763 286.03 182.225 289.635 184.15 291.57C187.278 294.717 190.873 298.14 193.745 301.442C193.328 301.792 192.92 302.155 192.525 302.532C182.595 312.16 172.988 322.222 163.113 331.917C158.928 336.03 153.59 340.082 153.563 346.377C153.535 349.587 154.785 352.677 157.04 354.965C159.145 357.09 162.488 358.597 165.493 358.592C167.88 358.575 170.203 357.822 172.15 356.44C174.86 354.517 182.068 346.98 184.903 344.142L210.678 318.367C215.435 322.627 220.75 328.187 225.33 332.777C226.135 333.625 226.86 334.485 227.62 335.37C227.398 335.57 227.178 335.772 226.96 335.98C204.348 357.265 185.655 382.152 212.2 410.13C219.82 418.16 231.603 416.377 234.03 404.462C235.783 395.865 222.45 389.58 223.32 381.25C224.398 370.917 238.553 358.295 245.498 351.415C254.693 357.205 261.503 361.09 272.275 363.797C291.723 368.532 312.254 365.352 329.36 354.96C346.445 344.64 358.734 327.957 363.527 308.582C367.733 291.472 365.914 273.437 358.376 257.512C356.125 252.787 354.069 249.815 351.42 245.437C357.752 238.935 367.911 228.46 375.891 224.744C386.987 219.576 391.319 229.856 399.388 233.445C402.539 234.585 405.546 234.174 408.435 232.764C414.464 230.31 417.01 221.383 413.385 215.886C408.88 209.057 399.35 203.515 391.907 201.033C373.007 194.733 357.462 206.276 344.432 218.604C342.512 220.421 337.434 225.91 335.326 227.041C334.021 226.812 320.114 212.626 318.353 210.581C320.437 208.796 323.351 205.693 325.339 203.702L338.05 190.998L349.39 179.669C352.973 176.086 357.743 172.332 358.38 167.101C358.79 163.661 357.768 160.205 355.553 157.541C351.974 153.274 344.703 152.168 340.217 155.392C336.516 158.052 332.968 162.075 329.718 165.335L311.792 183.267C308.955 186.101 304.424 190.867 301.473 193.352L301.199 193.581C299.294 191.884 296.764 189.147 294.879 187.276C291.425 183.845 287.791 180.278 284.447 176.754C295.46 164.993 308.848 153.72 312.176 137.012C314.866 123.507 308.832 111.113 299.631 101.531C297.081 98.8752 295.148 97.7772 291.512 97.0774C279.256 96.4972 273.953 110.083 280.762 116.46C298.82 133.374 281.044 144.659 269.446 157.711C268.975 158.241 266.934 160.223 266.52 160.16C265.601 160.02 257.738 155.184 257.02 154.809C254.113 153.267 251.098 151.933 248 150.817C234.218 145.913 223.1 145.388 208.83 147.263ZM323.711 306.59L267.78 250.685L248.61 231.515C245.633 228.537 242.07 225.162 239.233 222.127C242.285 218.802 265.597 195.01 267.576 193.944C271.908 198.648 277.94 204.332 282.558 208.948L311.925 238.312C319.044 245.432 329.817 255.227 334.721 263.52C339.693 272.065 342.146 281.84 341.799 291.717C341.48 300.397 338.797 309.555 334.152 316.91C331.074 314.242 326.642 309.582 323.711 306.59ZM287.998 341.722C267.816 340.32 259.818 333.302 246.295 319.745L234.298 307.707L193.908 267.432C197.043 264.012 220.733 239.829 222.428 239.394C233.28 250.57 316.272 332.357 316.685 334.105C316.055 335.15 309.983 337.76 308.631 338.29C302.045 340.88 295.053 341.835 287.998 341.722ZM249.273 177.898C228.475 198.738 206.963 219.736 186.44 240.759C183.733 243.462 180.693 246.633 177.888 249.167C170.54 236.719 168.26 222.728 171.938 208.665C175.44 195.316 184.153 183.93 196.123 177.057C203.91 172.576 214.533 169.727 223.533 170.353C234.45 171.162 239.68 172.587 249.273 177.898Z" fill="currentColor"/>
</svg>
