<svg width="48" height="48" viewBox="0 0 48 48" fill="none" xmlns="http://www.w3.org/2000/svg">
	<title>plant-flask</title>
<path d="M33.9134 3.0106C34.4018 2.99542 34.9784 2.9233 35.3585 3.28578C35.591 3.50762 35.6611 3.76234 35.6616 4.07525C35.666 7.42705 34.9034 10.9865 32.512 13.4759C30.4446 15.6355 27.5316 16.6198 24.6103 16.872C24.2991 16.8989 23.9852 16.9475 23.6735 16.9545C23.6524 17.6052 23.6681 18.3241 23.667 18.9815C24.6729 19.0078 25.6835 18.9837 26.6904 18.992C27.1772 19.024 27.7449 18.931 28.2209 19.0348C28.8813 19.1787 28.9943 19.7001 28.9964 20.2524L28.9945 33.4709L28.9955 37.0946C28.9957 37.9822 29.0428 39.0722 28.8727 39.9202C28.6233 41.1385 28.0224 42.2572 27.1439 43.1375C25.9702 44.3229 24.3736 44.994 22.7054 45.0022C20.9999 45.0127 19.3624 44.334 18.1643 43.1201C17.1402 42.0908 16.5042 40.7382 16.3643 39.2928C16.3229 38.8833 16.3314 38.4683 16.3324 38.0567L16.3325 25.6245L16.3323 21.8096C16.3322 21.2973 16.332 20.7848 16.3313 20.2728C16.3308 19.9025 16.3506 19.5602 16.6329 19.2826C16.7358 19.1788 16.9255 19.0584 17.0726 19.0378C17.6133 18.9621 18.2055 18.9919 18.7516 18.9918L21.6568 18.9932C21.6814 18.3472 21.6644 17.5971 21.6608 16.9453C18.1087 16.7699 14.7207 15.2543 13.2767 11.8308C12.6767 10.4645 12.433 9.01088 12.3551 7.53003C12.2715 6.46351 12.2892 5.64648 13.6094 5.66288C16.8061 5.70259 20.1245 6.69327 21.9535 9.50373C22.1373 9.78617 22.3423 10.102 22.4712 10.4175C22.6271 10.1058 22.7581 9.70117 22.9031 9.37121C24.9171 4.78932 29.1729 3.21128 33.9134 3.0106ZM27.001 26.8946C27.0005 24.9879 26.9635 22.9092 27.0054 21.0155C26.2486 21.0071 25.4916 21.0049 24.7348 21.0088C24.4299 21.0094 23.9503 21.0305 23.6653 21.0114L23.6665 31.054L23.6684 34.3726C23.6688 34.9383 23.6876 35.5337 23.6506 36.0854C23.572 36.9401 22.5511 37.3219 21.9445 36.6943C21.7791 36.5232 21.6889 36.3301 21.678 36.0917C21.65 35.4844 21.6626 34.8615 21.663 34.2542L21.6645 30.6519L21.6637 24.44C21.6636 23.3933 21.6404 22.238 21.667 21.2002L21.6724 21.0173C20.917 21.0061 20.1616 21.003 19.4062 21.0082C19.0699 21.009 18.6854 21.0261 18.3569 21.0081C18.3233 21.0789 18.333 21.1576 18.3325 21.2388L18.3332 32.4343L18.3324 36.5215C18.3318 37.6109 18.2285 39.1179 18.5845 40.1126C18.9751 41.2067 19.7871 42.0992 20.8396 42.5909C21.8865 43.0763 23.0837 43.1244 24.1662 42.7243C25.2443 42.3144 26.1202 41.4997 26.607 40.4539C26.7963 40.0376 26.9173 39.5937 26.9653 39.139C27.0188 38.6276 27.0017 37.9948 27.0019 37.4729L27.0012 35.0063L27.001 26.8946ZM23.7598 14.9566C24.5238 14.9352 25.272 14.8407 26.0234 14.6987C27.9305 14.3381 29.7403 13.5328 31.0917 12.1092C32.8678 10.238 33.5044 7.6187 33.6349 5.10868C33.6359 5.09371 33.626 5.07631 33.6197 5.06305L33.5684 5.05238C30.9956 5.10599 28.0596 5.93579 26.2599 7.85905C24.777 9.44368 24.0994 11.4014 23.8212 13.5295C23.7767 13.8697 23.6944 14.5906 23.6963 14.9194C23.7377 14.9575 23.7152 14.9478 23.7598 14.9566ZM21.6281 14.9522C21.4496 12.8326 21.0006 10.8652 19.286 9.38921C18.2121 8.46481 16.8356 8.0211 15.4568 7.82249C15.176 7.78203 14.5791 7.75178 14.3601 7.69911L14.3645 7.72515C14.434 8.156 14.4438 8.60192 14.5182 9.04686C14.8109 10.7976 15.5711 12.4964 17.0588 13.5504C18.1682 14.3515 19.4625 14.7154 20.8029 14.8877C20.9711 14.9094 21.4906 14.9683 21.6281 14.9522Z" fill="currentColor"/>
</svg>
