<svg width="512" height="512" viewBox="0 0 512 512" fill="none" xmlns="http://www.w3.org/2000/svg">
<path d="M152.485 4.11796C146.485 3.94206 139.405 3.06486 135.045 8.06811C130.635 13.1287 132.047 22.1028 132.337 28.379C133.97 63.5345 144.645 99.463 171.667 123.522C191.735 141.39 217.237 150.417 243.605 153.79C247.837 154.337 255.835 155.324 259.957 155.08C260.387 178.951 259.975 203.959 259.992 227.949L179.755 227.985L156.442 227.98C151.86 227.98 146.77 227.87 142.225 228.087C130.267 228.541 119.017 233.879 111.102 242.857C99.64 255.682 99.4974 269.338 99.9799 285.448C100.427 300.353 95.4874 318.105 117.83 315.983L140.142 449.883L145.702 483.272C146.222 486.43 146.81 489.675 147.27 492.837C148.15 498.862 149.127 504.43 155.465 507.082C157.325 507.86 158.827 507.997 160.84 508.017C172.285 508.122 183.737 508.07 195.185 508.068L260.792 508.065L319.943 508.07C330.29 508.078 340.64 508.133 350.986 508.033C357.233 507.97 361.224 505.435 363.494 499.547C364.162 496.965 364.709 493.057 365.157 490.353L367.677 475.17L375.894 425.867L387.861 354.13C389.833 342.3 392.614 327.995 394.068 316.242C399.389 316.07 404.555 316.465 408.59 312.402C411.526 309.448 412.011 306.085 412.023 302.128L411.994 282.027C412.008 273.34 412.43 265.442 409.404 257.122C404.405 243.38 393.152 232.959 378.931 229.38C372.188 227.683 365.401 227.987 358.492 227.985L341.207 227.984L284.043 227.977L283.957 155.281C295.96 154.184 304.979 152.739 316.322 149.359C358.827 136.697 378.781 98.5752 379.833 56.4217C379.935 52.334 380.506 47.8575 379.159 43.8635C376.192 35.0642 367.448 35.7572 359.967 36.184C330.278 37.2397 299.396 46.9412 280.882 71.552C278.533 74.6755 276.07 78.1247 274.343 81.6272C272.7 78.3555 271.306 74.3282 269.731 70.8797C247.852 23.0019 202.42 6.25309 152.485 4.11796ZM166.085 459.582C160.807 425.452 154.427 391.16 149.022 357.022C146.885 343.512 144.145 329.55 142.287 316.08L297.195 316.082L346.445 316.085L361.752 316.103C364.045 316.108 367.507 316.25 369.69 316.062C369.422 320.11 367.914 327.518 367.19 331.79L362.548 359.693L348.698 442.788L344.172 469.93C343.445 474.29 342.414 479.602 341.868 483.927C321.899 484.155 301.645 483.997 281.656 483.997L170.18 483.995C168.98 476.43 167.607 467.005 166.085 459.582ZM144.125 291.99C137.515 291.99 130.627 292.09 124.042 291.978L123.975 279.51C123.942 271.103 123.56 264.265 129.925 257.86C136.35 251.395 143.647 252.065 152.057 252.065L167.265 252.075L217.245 252.082L316.372 252.077C333.061 252.077 350.547 251.815 367.182 252.102L367.638 252.115C374.137 252.592 378.631 253.787 383.151 258.937C388.458 264.982 388.028 271.72 388.009 279.217C387.998 283.388 387.948 287.773 387.992 291.95L144.125 291.99ZM258.812 131.49C236.452 130.767 212.632 125.014 194.087 111.806C167.537 92.8975 157.975 60.6555 156.492 29.4682C156.48 29.252 156.617 28.8672 156.685 28.6627C157.225 28.5655 157.02 28.519 157.315 28.622C185.93 30.133 215.212 37.4955 234.847 59.6702C252.672 79.7987 257.762 105.116 259.645 131.017L259.442 131.428L258.812 131.49ZM284.497 131.582C286.573 110.573 291.385 91.3355 308.542 76.9125C318.792 68.2962 331.55 64.0995 344.569 61.8802C347.784 61.3322 352.732 61.0782 355.542 60.442C352.66 88.4725 344.178 112.52 315.825 124.492C304.728 129.178 296.169 130.067 284.497 131.582Z" fill="currentColor"/>
</svg>
