<svg width="512" height="512" viewBox="0 0 512 512" fill="none" xmlns="http://www.w3.org/2000/svg">
	<title>secateurs</title>
<path d="M466.418 132.098C457.67 131.795 448.715 132.099 439.985 131.983C404.35 131.512 371.723 134.218 337.103 142.865C316.207 148.085 293.77 156.519 273.191 160.611C265.848 162.113 258.41 163.097 250.927 163.555C240.452 164.147 231.742 163.342 221.915 167.985C213.02 172.187 208.142 177.101 202.55 184.88C195.812 182.831 188.205 180.477 181.135 180.189C172.157 179.824 162.805 179.989 153.79 179.99L104.767 179.99L46.4575 179.991C36.5724 179.991 26.5925 179.912 16.705 180.04C14.72 180.065 12.5125 180.47 10.7175 181.319C7.82248 182.69 5.63498 185.212 4.68997 188.272C3.72748 191.321 3.98996 194.494 4.23996 197.627C5.15247 209.025 8.51746 218.475 13.74 228.468C10.2574 229.594 7.21747 230.944 5.43747 234.487C1.97247 241.385 5.74997 257.845 7.93246 264.54C15.89 288.933 34.84 308.005 57.4925 319.373C68.345 324.803 79.9575 328.555 91.935 330.5C102.677 332.24 110.872 332.088 121.752 332.083L146.272 332.093L167.21 332.1C181.635 332.098 188.772 331.645 202.597 327.063C210.61 338.618 220.565 345.793 234.845 347.725C238.132 348.173 242.92 348.108 246.397 348.258C251.895 348.49 257.375 348.985 262.825 349.735C276.727 351.718 289.87 355.248 303.225 359.518C306.15 360.238 309.698 361.433 312.656 362.325C318.605 364.153 324.582 365.883 330.587 367.518C351.643 373.3 373.206 377.053 394.978 378.72C412.508 380.025 429.438 380.245 446.993 380.085C455.008 380.013 465.879 380.63 473.458 378.973C480.642 377.395 487.313 374.033 492.855 369.198C501.692 361.555 507.098 350.693 507.867 339.035C508.675 327.27 504.743 315.673 496.947 306.825C490.595 299.585 482.015 294.663 472.557 292.838C466.956 291.755 459.709 291.975 453.855 291.983H431.068C411.949 291.998 392.852 290.668 373.919 287.998C359.59 285.85 345.417 282.765 331.492 278.76C319.204 275.305 306.813 271.145 294.507 267.878C280.524 264.018 266.182 261.6 251.707 260.668C252.077 257.153 251.952 255.065 251.612 251.55C255.617 251.058 259.612 250.803 263.635 250.29C271.822 249.248 279.945 247.749 287.964 245.798C301.01 242.649 313.951 238.384 326.851 234.606C339.421 230.858 352.186 227.794 365.089 225.43C386.199 221.909 407.563 220.123 428.965 220.091L453.005 220.096C459.008 220.104 466.464 220.325 472.259 219.228C479.822 217.766 486.872 214.354 492.711 209.329C501.486 201.804 506.921 191.109 507.826 179.586C508.774 167.851 505.002 156.222 497.346 147.279C489.122 137.757 478.835 133.063 466.418 132.098ZM29.3875 204.086L133.255 204.079C147.272 204.079 162.05 203.821 175.962 204.112C191.227 204.714 203.655 209.401 214.245 220.826C223.64 231.031 228.555 244.571 227.9 258.425C227.255 272.333 221.04 285.393 210.66 294.668C200.417 303.893 186.902 308.63 173.142 307.813C148.305 306.395 129.005 288.31 124.702 264.038C123.915 257.82 124.745 250.498 119.395 246.48C115.07 243.231 109.38 244.086 104.322 243.963C94.0325 243.711 82.3525 244.641 72.2125 243.317C56.3925 241.251 41.72 230.39 34.2175 216.458C31.845 212.05 30.8975 208.773 29.3875 204.086ZM245.677 225.784C241.087 216.393 235.765 207.921 227.905 200.924C227.15 200.253 223.54 197.213 223.987 196.444C229.942 186.18 244.353 188.357 253.355 187.622C261.68 186.966 269.958 185.811 278.145 184.165C300.696 179.618 323.737 170.737 346.495 165.347C378.328 157.807 408.585 155.714 441.19 156.08C448.562 156.163 456.331 155.891 463.644 156.114C466.737 156.344 469.639 156.59 472.483 157.93C480.105 161.519 484.574 169.263 483.922 177.636C483.465 182.962 480.902 187.885 476.802 191.315C472.044 195.314 467.327 195.986 461.279 195.992C457.439 195.995 453.57 195.998 449.727 195.996C439.734 195.937 429.741 195.985 419.749 196.14C392.761 196.809 367.33 199.571 341.016 205.901C309.846 213.398 280.063 226.319 247.682 227.6C246.357 227.653 246.01 226.828 245.677 225.784ZM460.617 355.998C420.907 356.013 388.648 356.455 349.239 347.335C324.822 341.685 300.011 332.073 276.149 327.468C268.625 326.018 261.022 325.005 253.38 324.443C243.037 323.723 233.89 325.818 225.975 317.953C225.065 317.043 224.217 316.068 223.44 315.04C231.96 307.2 237.517 301.79 243.24 291.3C244.225 289.498 245.702 284.925 247.07 284.588C250.39 284.823 253.712 284.918 257.017 285.25C284.713 288.043 310.688 298.463 337.557 305.315C368.65 313.245 398.409 315.878 430.321 316.06L449.749 316.073C454.582 316.07 459.368 316.11 464.199 316.17C475.967 316.313 484.91 325.9 483.882 337.815C483.399 343.078 480.863 347.94 476.823 351.348C471.884 355.43 466.777 356.038 460.617 355.998ZM100.837 267.963C101.697 271.805 102.562 275.635 103.77 279.378C106.897 289.058 113.7 300.625 121.005 307.92C119.967 307.945 118.305 308.033 117.312 308.003C110.952 307.998 104.625 307.828 98.31 307.013C67.6825 303.063 36.88 283.563 29.335 252.045L33.455 252.11C35.3725 252.795 37.44 254.51 39.185 255.62C41.7175 257.233 44.1575 258.883 46.9025 260.138C60.72 267.13 73.465 268.49 88.6375 268.093C92.345 267.995 97.185 268.345 100.837 267.963Z" fill="currentColor"/>
<path d="M177.115 244.09C170.545 243.494 164.733 248.324 164.115 254.892C163.498 261.457 168.31 267.287 174.878 267.922C181.47 268.562 187.328 263.725 187.948 257.13C188.568 250.535 183.71 244.69 177.115 244.09Z" fill="currentColor"/>
</svg>
