<svg width="512" height="512" viewBox="0 0 512 512" fill="none" xmlns="http://www.w3.org/2000/svg">
<path d="M199.275 4.10998C197.532 4.04908 195.79 4.01478 194.047 4.00708C183.032 4.03073 179.72 9.96398 179.992 20.0543C180.757 48.5502 187.74 77.4954 209.26 97.6279C224.137 111.546 243.035 118.842 262.989 121.847C266.902 122.447 272.065 123.196 275.951 123.09C276.195 133.201 275.985 144.095 275.986 154.296L275.989 213.662L275.989 252.42C275.989 258.967 276.238 267.76 275.809 274.122C273.979 270.627 272.489 267.162 270.517 263.51C265.115 253.532 258.78 244.088 251.6 235.304C214.247 189.864 159.402 171.212 102.477 165.717C93.3099 164.86 84.1149 164.324 74.9074 164.108C71.0324 163.998 65.7799 163.646 62.0249 164.324C50.2049 166.46 51.8724 178.135 52.1449 187.126C52.3574 194.39 52.7424 201.648 53.2974 208.894C63.1374 329.412 129.15 400.252 251.122 410.245C258.097 410.815 265.218 411.177 272.192 411.707C273.986 411.935 274.13 411.895 275.898 411.627C276.233 418.28 275.995 426.922 275.996 433.672L275.991 474.375L275.964 488.03C275.955 490.892 275.922 493.592 276.099 496.492C276.639 506.25 287.507 511.395 295.315 505.49C296.986 504.28 299.515 501.035 299.677 498.85C300.221 491.502 299.997 483.845 299.997 476.477L299.999 437.392L299.964 315.337C303.905 314.92 307.934 314.845 311.899 314.477C321.466 313.645 330.975 312.245 340.377 310.287C417.946 294.1 455.734 237.72 459.519 161.241C459.542 154.914 460.706 147.602 459.555 141.366C457.156 130.016 445.5 131.965 437.115 132.224C381.296 133.95 330.145 152.179 300.058 201.584C299.833 193.733 299.983 185.315 299.985 177.401L299.994 135.086C299.994 123.141 300.316 109.499 299.466 97.7397C297.833 75.1232 290.768 51.3899 275.258 34.3014C255.407 12.4286 227.64 5.50996 199.275 4.10998ZM149.047 267.18C147.01 272.847 148.232 277.242 152.437 281.42C159.607 288.54 166.74 295.702 173.885 302.847L217.747 346.707L243.985 372.95C247.21 376.175 253.867 383.225 257.135 385.927C249.62 385.697 238.392 384.04 231.107 382.84C190.647 376.17 152.425 360.667 124.142 330.012C96.3924 299.935 83.8149 261.237 78.7 221.246C77.1899 209.449 76.9074 199.981 76.1724 188.371L81.4899 188.611C134.847 190.726 189.452 204.156 226.807 244.788C252.027 272.22 264.946 307.085 270.915 343.415C272.026 350.175 273.783 362.192 273.926 369.045C265.945 360.542 256.882 351.782 248.6 343.497L205.052 299.945L180.302 275.197C177.072 271.967 173.857 268.717 170.607 265.51C167.397 262.342 165.182 260.16 160.367 260.067C156.98 259.992 153.712 261.332 151.355 263.767C150.395 264.762 149.615 265.917 149.047 267.18ZM319.257 289.715L370.992 238.047L385.539 223.5C389.701 219.338 396.229 214.393 395.97 208.116C395.811 204.282 394.679 201.972 392.207 199.194C387.468 195.151 381.232 194.943 376.408 198.869C374.177 200.685 372.231 202.762 370.21 204.8L360.377 214.696L321.416 253.622L309.298 265.745C307.518 267.522 304.3 270.877 302.383 272.39C307.185 237.43 319.059 205.093 348.103 183.198C370.753 166.124 398.552 159.121 426.426 156.933C429.446 156.696 432.795 156.841 435.739 156.355C433.675 194.349 424.98 231.83 395.558 258.38C373.733 278.075 347.676 285.575 319.257 289.715ZM272.938 99.2327C252.857 97.1344 233.855 91.2964 220.59 74.9897C211.44 63.7404 207.27 50.0757 205.31 35.9237C205.117 34.5217 204.345 29.9322 204.79 28.8272C205.445 28.6074 205.855 28.7444 206.535 28.8547C244.03 31.0899 269.651 52.3372 274.397 89.9732C274.754 92.8044 275.443 96.1742 275.41 98.9917C274.852 99.6084 273.737 99.3284 272.938 99.2327Z" fill="currentColor"/>
</svg>
