<svg width="512" height="512" viewBox="0 0 512 512" fill="none" xmlns="http://www.w3.org/2000/svg">
<path d="M290.026 4.08873C284.146 3.82958 277.342 3.98063 271.403 3.97965L239.57 3.97848L147.608 3.98048C144.833 3.98868 142.193 4.00963 139.435 4.2736C118.44 6.28325 101.35 23.947 100.123 45.0213C99.8801 49.1803 99.9701 53.2685 99.9676 57.4223L99.9501 77.3665C99.9901 86.9435 103.83 91.3788 113.358 92.246C114.675 92.3658 116.508 92.676 117.8 93.0315C121.018 93.915 123.948 95.6273 126.298 97.997C132.673 104.427 132.003 111.994 131.983 120.291L131.993 133.799C122.785 136.543 114.678 142.118 108.82 149.731C103.925 156.144 100.945 163.813 100.228 171.849C99.7126 177.049 99.9626 186.005 99.9626 191.507L99.9701 225.665L99.9726 336.025L99.9701 426.498L99.955 452.248C99.9525 457.953 99.7251 465.07 100.53 470.573C102.26 482.03 108.453 492.338 117.755 499.248C123.623 503.698 130.533 506.575 137.825 507.605C142.095 508.18 146.893 508.075 151.233 508.075L167.838 508.065L224.42 508.063L280.068 508.075L296.381 508.083C302.251 508.08 307.698 508.233 313.477 506.943C325.199 504.328 333.465 498.09 340.448 488.613C342.682 485.178 344.318 482.05 345.63 478.153C346.689 475.09 347.378 471.91 347.681 468.683C348.303 462.37 347.978 452.005 347.976 445.303L347.968 403.645L347.973 356.745C347.982 348.408 348.707 337.178 347.214 329.21C342.521 304.16 304.831 270.565 286.493 252.303C276.909 242.759 261.053 227.273 254.633 215.716C251.558 210.177 251.943 204.69 251.95 198.573L251.98 183.96C252 173.932 252.155 165.735 247.365 156.505C241.015 144.268 232.68 138.143 220.015 133.849C219.88 129.638 220.03 125.251 219.95 121.065C219.718 109.237 219.55 102.645 229.673 95.2425C230.523 98.4318 231.39 101.528 232.575 104.618C241.838 128.792 263.277 146.379 283.863 160.829C288.547 164.116 294.406 168.351 299.432 171.084C301.858 172.403 305.957 172.156 308.586 171.089C311.55 169.889 313.898 167.533 315.089 164.564C316.656 160.654 315.991 155.599 313.157 152.301C310.957 149.749 307.904 148.082 305.139 146.202C287.958 134.519 269.848 121.905 258.855 103.84C256.54 100.039 255.388 96.151 253.713 92.1133C261.59 91.9038 269.785 92.2068 277.686 92.0968C283.208 92.02 289.34 92.4573 294.705 91.1925C298.458 90.2923 301.971 88.5898 305.002 86.2023C312.908 80.0443 316.112 71.9368 315.979 62.0903C315.874 54.2218 316.04 46.269 315.988 38.3933C315.959 33.9418 316.142 29.6318 315.115 25.243C314.167 21.3029 312.355 17.6225 309.811 14.4675C304.589 7.91753 298.188 4.99018 290.026 4.08873ZM240.125 483.99L171.488 483.983L153.205 484.008C144.125 484.018 136.873 484.923 129.903 478.023C126.738 474.935 124.735 470.85 124.233 466.458C123.82 463.083 123.955 458.068 123.958 454.52L123.965 436.675L123.973 376.828L123.965 179.902C123.978 172.664 124.483 167.44 129.793 161.972C135.273 156.328 141.26 156.054 148.725 156.071C153.483 156.082 158.35 156.067 163.135 156.067L202.315 156.08C204.055 156.085 205.888 156.067 207.625 156.115C218.81 156.935 226.458 162.524 227.823 174.387C228.158 177.286 228 180.381 227.995 183.309L227.96 199.583C227.94 209.866 227.83 216.246 232.93 225.676C240.988 240.646 253.293 252.838 265.046 264.923C282.866 283.245 302.697 300.273 317.632 321.143C320.583 325.265 323.752 330.988 323.886 336.188C324.083 343.81 323.977 351.488 323.969 359.12L323.96 402.845L323.978 443.89C323.984 451.02 323.997 458.358 323.869 465.288C323.722 473.22 316.632 482.11 308.767 483.353C301.727 484.468 291.873 484.003 284.56 484.003L240.125 483.99ZM195.983 131.941L156.01 131.985C155.988 123.985 156.548 107.912 154.533 100.925C151.81 89.8853 144.32 80.0345 134.59 74.199C131.29 72.2488 127.753 70.7293 124.065 69.6783C123.908 65.5388 123.948 61.1713 123.95 57.0438C123.955 48.6613 123.143 41.068 129.32 34.4865C133.745 29.7748 138.588 28.1718 144.965 28.1025C153.173 28.0135 161.433 28.0875 169.633 28.0855L217.88 28.0743L234.718 28.1103C237.15 28.1205 241.718 28.315 243.92 27.9628C244.19 41.2295 243.768 54.6978 243.988 67.9455C229.508 68.076 219.168 70.7043 208.475 81.3685C194.05 95.753 195.715 113.089 195.983 131.941ZM272.688 67.992L268.009 67.985C267.963 54.9445 268.227 41.1133 267.924 28.1723C273.476 28.102 280.359 27.8875 285.852 28.1143C288.63 28.1818 292.037 28.208 291.854 32.2613C291.638 37.0138 293.069 64.2498 290.75 66.9193C289.287 68.6028 276.368 67.9633 272.688 67.992Z" fill="currentColor"/>
<path d="M401.208 4.0929C394.673 3.44803 388.839 8.18738 388.131 14.7155C387.422 21.2436 392.105 27.1236 398.626 27.8949C405.237 28.6766 411.216 23.9152 411.934 17.2972C412.651 10.6792 407.832 4.74668 401.208 4.0929Z" fill="currentColor"/>
<path d="M353.114 36.0907C346.545 35.4937 340.731 40.3242 340.115 46.8914C339.498 53.4584 344.311 59.2867 350.876 59.9229C357.47 60.5622 363.328 55.7242 363.947 49.1289C364.567 42.5339 359.711 36.6899 353.114 36.0907Z" fill="currentColor"/>
<path d="M401.114 68.0907C394.545 67.4937 388.732 72.3242 388.115 78.8914C387.498 85.4584 392.311 91.2867 398.877 91.9232C405.47 92.5622 411.328 87.7242 411.948 81.1292C412.567 74.5339 407.711 68.6899 401.114 68.0907Z" fill="currentColor"/>
</svg>
