<svg width="32" height="32" viewBox="0 0 32 32" fill="none" xmlns="http://www.w3.org/2000/svg">
<path d="M17.4014 13.2119C17.6624 13.622 18.063 13.9297 18.5371 14.0674L20.9814 14.7773L20.9951 14.8037C21.0001 14.8197 21.001 14.8359 20.999 14.8486C20.9973 14.8594 20.9932 14.8693 20.9844 14.8809L19.4072 16.9531C19.113 17.3398 18.9667 17.8174 18.9863 18.2988L19.0938 20.9414C19.0947 20.9643 19.0901 20.9769 19.0869 20.9834C19.0844 20.9887 19.0802 20.9919 19.0771 20.9951L16.7148 20.0771L16.54 20.0186C16.1868 19.9179 15.8132 19.9179 15.46 20.0186L15.2852 20.0771L12.9219 20.9951C12.919 20.992 12.9155 20.9884 12.9131 20.9834C12.9099 20.9769 12.9053 20.9643 12.9062 20.9414L13.0137 18.2988C13.0333 17.8174 12.887 17.3398 12.5928 16.9531L11.0156 14.8809C11.0068 14.8693 11.0027 14.8594 11.001 14.8486C10.999 14.8359 10.9999 14.8197 11.0049 14.8037L11.0186 14.7773L13.4629 14.0674C13.937 13.9297 14.3376 13.622 14.5986 13.2119L16 11.0107L17.4014 13.2119Z" stroke="currentColor" stroke-width="2"/>
</svg>
