<svg width="32" height="32" viewBox="0 0 32 32" fill="none" xmlns="http://www.w3.org/2000/svg">
<path d="M17.4014 6.21191C17.6624 6.62199 18.063 6.92973 18.5371 7.06738L20.9814 7.77734L20.9951 7.80371C21.0001 7.81968 21.001 7.83585 20.999 7.84863C20.9973 7.85936 20.9932 7.86929 20.9844 7.88086L19.4072 9.95312C19.113 10.3398 18.9667 10.8174 18.9863 11.2988L19.0938 13.9414C19.0947 13.9643 19.0901 13.9769 19.0869 13.9834C19.0844 13.9887 19.0802 13.9919 19.0771 13.9951L16.7148 13.0771L16.54 13.0186C16.1868 12.9179 15.8132 12.9179 15.46 13.0186L15.2852 13.0771L12.9219 13.9951C12.919 13.992 12.9155 13.9884 12.9131 13.9834C12.9099 13.9769 12.9053 13.9643 12.9062 13.9414L13.0137 11.2988C13.0333 10.8174 12.887 10.3398 12.5928 9.95312L11.0156 7.88086C11.0068 7.86929 11.0027 7.85936 11.001 7.84863C10.999 7.83585 10.9999 7.81968 11.0049 7.80371L11.0186 7.77734L13.4629 7.06738C13.937 6.92973 14.3376 6.62199 14.5986 6.21191L16 4.01074L17.4014 6.21191Z" stroke="currentColor" stroke-width="2"/>
<path d="M25.4014 18.2119C25.6624 18.622 26.063 18.9297 26.5371 19.0674L28.9814 19.7773L28.9951 19.8037C29.0001 19.8197 29.001 19.8359 28.999 19.8486C28.9973 19.8594 28.9932 19.8693 28.9844 19.8809L27.4072 21.9531C27.113 22.3398 26.9667 22.8174 26.9863 23.2988L27.0938 25.9414C27.0947 25.9643 27.0901 25.9769 27.0869 25.9834C27.0844 25.9887 27.0802 25.9919 27.0771 25.9951L24.7148 25.0771L24.54 25.0186C24.1868 24.9179 23.8132 24.9179 23.46 25.0186L23.2852 25.0771L20.9219 25.9951C20.919 25.992 20.9155 25.9884 20.9131 25.9834C20.9099 25.9769 20.9053 25.9643 20.9062 25.9414L21.0137 23.2988C21.0333 22.8174 20.887 22.3398 20.5928 21.9531L19.0156 19.8809C19.0068 19.8693 19.0027 19.8594 19.001 19.8486C18.999 19.8359 18.9999 19.8197 19.0049 19.8037L19.0186 19.7773L21.4629 19.0674C21.937 18.9297 22.3376 18.622 22.5986 18.2119L24 16.0107L25.4014 18.2119Z" stroke="currentColor" stroke-width="2"/>
<path d="M10.4014 18.2119C10.6624 18.622 11.063 18.9297 11.5371 19.0674L13.9814 19.7773L13.9951 19.8037C14.0001 19.8197 14.001 19.8359 13.999 19.8486C13.9973 19.8594 13.9932 19.8693 13.9844 19.8809L12.4072 21.9531C12.113 22.3398 11.9667 22.8174 11.9863 23.2988L12.0938 25.9414C12.0947 25.9643 12.0901 25.9769 12.0869 25.9834C12.0844 25.9887 12.0802 25.9919 12.0771 25.9951L9.71484 25.0771L9.54004 25.0186C9.18675 24.9179 8.81325 24.9179 8.45996 25.0186L8.28516 25.0771L5.92188 25.9951C5.91901 25.992 5.9155 25.9884 5.91309 25.9834C5.90995 25.9769 5.90532 25.9643 5.90625 25.9414L6.01367 23.2988C6.03331 22.8174 5.88701 22.3398 5.59277 21.9531L4.01562 19.8809C4.00682 19.8693 4.00268 19.8594 4.00098 19.8486C3.99895 19.8359 3.99991 19.8197 4.00488 19.8037L4.01855 19.7773L6.46289 19.0674C6.937 18.9297 7.33762 18.622 7.59863 18.2119L9 16.0107L10.4014 18.2119Z" stroke="currentColor" stroke-width="2"/>
</svg>
