<svg width="32" height="32" viewBox="0 0 32 32" fill="none" xmlns="http://www.w3.org/2000/svg">
<path d="M24.4014 13.2119C24.6624 13.622 25.063 13.9297 25.5371 14.0674L27.9814 14.7773L27.9951 14.8037C28.0001 14.8197 28.001 14.8359 27.999 14.8486C27.9973 14.8594 27.9932 14.8693 27.9844 14.8809L26.4072 16.9531C26.113 17.3398 25.9667 17.8174 25.9863 18.2988L26.0938 20.9414C26.0947 20.9643 26.0901 20.9769 26.0869 20.9834C26.0844 20.9887 26.0802 20.9919 26.0771 20.9951L23.7148 20.0771L23.54 20.0186C23.1868 19.9179 22.8132 19.9179 22.46 20.0186L22.2852 20.0771L19.9219 20.9951C19.919 20.992 19.9155 20.9884 19.9131 20.9834C19.9099 20.9769 19.9053 20.9643 19.9062 20.9414L20.0137 18.2988C20.0333 17.8174 19.887 17.3398 19.5928 16.9531L18.0156 14.8809C18.0068 14.8693 18.0027 14.8594 18.001 14.8486C17.999 14.8359 17.9999 14.8197 18.0049 14.8037L18.0186 14.7773L20.4629 14.0674C20.937 13.9297 21.3376 13.622 21.5986 13.2119L23 11.0107L24.4014 13.2119Z" stroke="currentColor" stroke-width="2"/>
<path d="M9.40137 13.2119C9.66238 13.622 10.063 13.9297 10.5371 14.0674L12.9814 14.7773L12.9951 14.8037C13.0001 14.8197 13.001 14.8359 12.999 14.8486C12.9973 14.8594 12.9932 14.8693 12.9844 14.8809L11.4072 16.9531C11.113 17.3398 10.9667 17.8174 10.9863 18.2988L11.0938 20.9414C11.0947 20.9643 11.0901 20.9769 11.0869 20.9834C11.0844 20.9887 11.0802 20.9919 11.0771 20.9951L8.71484 20.0771L8.54004 20.0186C8.18675 19.9179 7.81325 19.9179 7.45996 20.0186L7.28516 20.0771L4.92188 20.9951C4.91901 20.992 4.9155 20.9884 4.91309 20.9834C4.90995 20.9769 4.90532 20.9643 4.90625 20.9414L5.01367 18.2988C5.03331 17.8174 4.88701 17.3398 4.59277 16.9531L3.01562 14.8809C3.00682 14.8693 3.00268 14.8594 3.00098 14.8486C2.99895 14.8359 2.99991 14.8197 3.00488 14.8037L3.01855 14.7773L5.46289 14.0674C5.937 13.9297 6.33762 13.622 6.59863 13.2119L8 11.0107L9.40137 13.2119Z" stroke="currentColor" stroke-width="2"/>
</svg>
