<svg width="512" height="512" viewBox="0 0 512 512" fill="none" xmlns="http://www.w3.org/2000/svg">
<path d="M373.096 36.1017C356.557 35.394 341.959 39.3025 327.46 47.089C307.342 57.8927 292.152 74.8655 276.2 90.8205L225.693 141.327L164.305 202.719L145.723 221.281C142.153 224.831 138.49 228.393 135.103 232.029C131.91 235.452 131.04 241.409 133.413 245.442C135.433 248.877 138.185 252.477 140.52 255.745L154.128 274.767L176.62 306.283C180.568 311.825 185.183 318.668 189.328 323.953C178.783 324.293 166.508 324 155.82 323.997L90.4976 323.995C89.9051 322.392 89.2951 320.708 88.6401 319.135C84.2151 308.402 75.7151 299.863 65.0026 295.39C61.3426 293.875 57.4926 292.862 53.5626 292.375C51.1425 292.082 48.6501 291.975 46.2101 291.987C36.0251 292.045 25.8151 291.817 15.6376 292.085C14.2676 292.12 12.1476 292.703 10.9476 293.233C8.06256 294.473 5.83505 296.872 4.81256 299.842C3.40256 303.927 3.98505 321.38 3.98505 326.432L3.99005 368.375L3.98505 409.802C3.98505 416.915 3.72757 424.117 4.03256 431.217C4.13007 433.485 4.42755 435.65 5.50507 437.69C6.91257 440.358 9.65256 442.637 12.5551 443.485C16.6951 444.695 49.6725 444.355 55.0551 443.465C59.92 442.668 64.6151 441.055 68.9401 438.69C79.3151 433.115 86.9875 423.575 90.2076 412.245C94.1801 411.84 102.15 412.08 106.375 412.082L205.345 412.078C220.803 412.078 236.698 412.302 252.093 412.112C262.595 426.052 272.518 440.978 282.902 455.033C285.936 459.138 293.721 471.243 297.22 473.795C299.759 475.66 302.955 476.39 306.052 475.818C308.785 475.33 311.226 473.778 313.172 471.858C318.511 466.59 323.808 461.228 329.103 455.918L357.353 427.7L446.246 338.802L488.071 296.975L499.601 285.452C504.211 280.84 509.133 277.167 507.734 269.802C507.265 267.322 506.037 265.048 504.22 263.295C502.269 261.405 498.472 258.877 496.152 257.235L483.593 248.293C469.284 238.058 454.514 227.19 440.043 217.284C440.986 216.082 442.112 214.793 443.142 213.658C456.278 199.188 463.57 180.164 464.961 160.679C467.127 127.003 456.06 93.8115 434.115 68.1747C418.085 49.7422 397.749 37.8425 373.096 36.1017ZM477.486 273.475L436.03 315.01L362.683 388.35L324.016 427.025L312.611 438.43C310.556 440.487 307.566 443.625 305.369 445.42C303.016 441.66 299.756 437.337 297.116 433.642L282.779 413.585L273.099 400.017C264.014 387.307 265.193 387.975 249.285 387.975L230.328 387.983L159.125 387.99L104.63 387.98L88.8651 387.983C83.235 387.985 75.9401 387.175 71.6626 391.38C67.7426 395.235 68.3326 400 67.2951 404.902C64.6551 414.945 56.6251 420.042 46.4926 419.995C40.39 419.967 34.1326 419.997 28.0426 419.978L27.9926 348.35C27.9926 337.8 28.1701 326.675 27.9426 316.163L40.2476 316.062C48.4476 316.01 55.8501 315.592 62.0976 321.775C64.5276 324.2 66.2676 327.23 67.1401 330.55C68.1601 334.312 67.6726 338.133 69.5676 341.685C73.2501 348.595 79.4576 348.067 86.08 348.082L173.283 348.08L199.48 348.098C204.188 348.1 208.855 348.247 213.56 347.885C219.905 347.395 224.6 342.3 224.53 335.892C224.508 333.783 224.03 331.783 222.855 330.015C219.81 325.233 216.3 320.515 213.003 315.9L194.183 289.537L171.505 257.782C168.028 252.917 163.34 245.891 159.675 241.372L235.07 165.961L259.95 141.079C261.66 139.369 272.555 128.159 273.625 127.949C289.515 139.039 305.395 150.602 321.188 161.872L418.068 231.068L457.504 259.242C463.8 263.74 471.107 269.27 477.486 273.475ZM420.04 202.78C416.55 200.643 413.002 197.823 409.611 195.476C401.839 190.097 394.089 184.091 386.295 178.792L323.519 133.955L303.308 119.511C299.193 116.571 294.757 113.272 290.532 110.548L307.231 93.794C324.872 76.1745 342.747 60.5067 369.384 60.1155C414.746 61.6075 442.335 113.557 441.285 154.375C440.824 172.294 434.456 189.927 420.879 202.062C420.585 202.326 420.357 202.531 420.04 202.78Z" fill="currentColor"/>
</svg>
